<svg xmlns="http://www.w3.org/2000/svg">
<defs>
<font
       horiz-adv-x="1000"
       id="font95"
       inkscape:label="フォント 1">
      <font-face
         units-per-em="1000"
         ascent="750"
         cap-height="600"
         x-height="400"
         descent="200"
         id="font-face95"
         font-family="SVGFont 1" />
      <missing-glyph
         d="M0,0h1000v1000h-1000z"
         id="missing-glyph95" />
      <glyph
         glyph-name=""
         unicode="D"
         id="glyph95"
         d="M 305.07125,729 248.37795,672.30664 298.37795,622.30664 V 346.30664 L 248.37795,296.30664 335.01465,209.66992 348.37795,196.30664 435.01465,282.94531 521.65335,196.30664 608.29195,282.94531 694.92875,196.30664 751.62205,253 701.62205,302.99805 V 579 L 751.62205,629 651.62205,729 594.92875,672.30664 644.92875,622.30664 V 346.30664 L 594.92875,296.30664 564.98335,266.36328 528.34665,303 V 579 L 578.34665,629 478.34665,729 421.65335,672.30664 471.65335,622.30664 V 346.30664 L 421.65335,296.30664 391.70805,266.36328 355.07125,303 V 579 L 405.07125,629 Z" />
      <glyph
         glyph-name=""
         unicode="I"
         id="glyph96"
         d="M 391.70905,729 335.01565,672.30664 385.01565,622.30859 V 346.30664 L 335.01565,296.30664 435.01565,196.30664 491.70905,253 441.70905,303 V 579 L 521.65435,658.94336 558.29105,622.30664 V 346.30664 L 508.29105,296.30664 608.29105,196.30664 664.98435,253 614.98435,303 V 579 L 664.98435,629 578.34765,715.63672 564.98435,729 508.29105,672.30664 478.34765,642.36328 Z" />
      <glyph
         glyph-name=""
         unicode="E"
         id="glyph97"
         d="M 391.708,729 335.0166,672.30664 385.0166,622.30664 V 346.30859 L 335.0166,296.30664 421.6533,209.66992 435.0166,196.30664 521.6533,282.94531 608.292,196.30664 664.9834,253 614.9834,303 V 578.99805 L 664.9834,629 564.9834,729 508.292,672.30664 558.292,622.30664 V 346.30859 L 508.292,296.30664 478.3467,266.36133 441.708,303 V 578.99805 L 491.708,629 Z" />
      <glyph
         glyph-name=""
         unicode="J"
         id="glyph98"
         d="M 391.708,729 335.0166,672.30664 385.0166,622.30664 V 346.30859 L 335.0166,296.30664 421.6533,209.66992 435.0166,196.30664 491.708,253 558.292,319.58203 V 121.30859 L 508.292,71.30664 608.292,-28.6934 664.9834,28 614.9834,78 V 578.99805 L 664.9834,629 564.9834,729 508.292,672.30664 558.292,622.30664 V 346.30664 L 478.3467,266.36133 441.708,303 V 578.99805 L 491.708,629 Z" />
      <glyph
         glyph-name=""
         unicode="X"
         id="glyph99"
         d="M 391.709,729 335.0156,672.30664 385.0156,622.30664 V 346.30664 L 335.0156,296.30664 435.0156,196.30664 491.709,253 441.709,303 V 579 L 491.709,629 521.6543,658.94336 558.291,622.30664 V 84.2793 L 515.3731,41.36328 428.7363,128 372.043,71.30664 458.6797,-15.3301 472.043,-28.6934 528.7363,28 558.291,57.55469 614.9844,114.24805 615.3731,114.63672 614.9844,115.02539 V 579 L 664.9844,629 578.3477,715.63672 564.9844,729 508.291,672.30664 478.3457,642.36328 Z" />
      <glyph
         glyph-name=""
         unicode="Z"
         id="glyph41"
         d="M 418.74219,729 362.04883,672.30664 412.04883,622.30664 V 346.30664 L 362.04883,296.30664 462.04883,196.30664 518.74219,253 468.74219,303 V 386.38672 L 585.32422,502.96875 V 346.30664 L 535.32422,296.30664 635.32422,196.30664 692.01758,253 642.01758,303 V 579 L 692.01758,629 592.01758,729 535.32422,672.30664 585.32422,622.30664 V 529.69336 L 468.74219,413.11328 V 579 L 518.74219,629 Z M 498.0957,188.72266 441.4043,132.0293 501.9043,71.5293 558.5957,128.22266 589.81836,159.44531 576.45703,172.80859 545.23438,141.58594 Z" />
      <glyph
         glyph-name=""
         unicode="T"
         id="glyph57"
         d="M 450,729 393.30664,672.30664 443.30664,622.30664 V 346.30664 L 393.30664,296.30664 493.30664,196.30664 550,253 500,303 V 386.38672 L 616.58203,502.96875 V 346.30664 L 566.58203,296.30664 666.58203,196.30664 723.27539,253 673.27539,303 V 579 L 723.27539,629 623.27539,729 566.58203,672.30664 616.58203,622.30664 V 529.69336 L 500,413.11328 V 579 L 550,629 Z" />
      <glyph
         glyph-name=""
         unicode="C"
         id="glyph63"
         d="M 472.53711,729 415.84375,672.30664 465.84375,622.30859 V 346.30664 L 415.84375,296.30664 515.84375,196.30664 572.53711,253 542.89453,282.64062 652.4082,392.1543 H 652.41211 L 695.8125,435.55469 V 579 L 745.8125,629 659.17578,715.63672 645.8125,729 589.11914,672.30664 559.17578,642.36328 Z M 602.48242,658.94336 639.11914,622.30664 V 405.58984 L 529.5332,296.00391 522.53711,303 V 579 Z" />
      <glyph
         glyph-name=""
         unicode="S"
         id="glyph67"
         d="M 472.53711,729 415.84375,672.30664 465.84375,622.30859 V 346.30664 L 415.84375,296.30664 515.84375,196.30664 572.53711,253 542.89453,282.64062 652.4082,392.1543 H 652.41211 L 695.8125,435.55469 V 579 L 745.8125,629 659.17578,715.63672 645.8125,729 589.11914,672.30664 559.17578,642.36328 Z M 602.48242,658.94336 639.11914,622.30664 V 405.58984 L 529.5332,296.00391 522.53711,303 V 579 Z M 498.0957,188.72266 441.4043,132.0293 501.9043,71.5293 527.375,97 558.5957,128.22266 589.81836,159.44531 576.45703,172.80859 545.23438,141.58594 Z" />
      <glyph
         glyph-name=""
         unicode="W"
         id="glyph75"
         d="M 519.98438,729 463.29102,672.30664 446.70898,655.72461 390.01562,599.03125 V 253 L 443.36328,199.6543 500.05469,256.3457 553.29102,309.58008 583.34766,339.63672 609.98438,366.27344 V 619 629 639 L 533.34766,715.63672 Z M 476.6543,658.94336 553.29102,582.30664 V 336.30664 L 486.69336,269.70898 446.70898,309.69336 V 629 Z" />
      <glyph
         glyph-name=""
         unicode="N"
         id="glyph132"
         d="M 369.69912,729 313.00582,672.3066 363.00582,622.3066 V 346.3066 L 313.00582,296.3066 413.00582,196.3066 469.69912,253 419.69912,303 V 385.7949 L 504.84952,470.9434 V 346.3066 L 454.84952,296.3066 554.84952,196.3066 698.18152,339.6367 734.81832,376.2734 V 579 L 784.81832,629 698.18152,715.6367 684.81832,729 628.12492,672.3066 598.18152,642.3633 511.54292,729 454.84952,672.3066 504.84952,622.3086 V 497.6699 L 419.69912,412.5195 V 579 L 469.69912,629 Z M 641.48822,658.9434 678.12492,622.3066 V 346.3066 L 598.18152,266.3633 561.54292,303.002 V 527.6367 579 Z" />
      <glyph
         glyph-name=""
         unicode="H"
         id="glyph133"
         d="M 514.17378,729 457.48052,672.3066 385.82622,600.6523 V 573.9277 296.3086 L 407.48052,274.6543 485.82808,196.3066 486.36718,196.8457 486.90628,196.3066 614.17378,323.5762 600.81248,336.9395 529.69728,265.8242 442.52152,353 442.51952,352.998 V 630.6211 L 470.84372,658.9434 557.48048,572.3066 614.17378,629 527.53708,715.6367 Z" />
      <glyph
         glyph-name=""
         unicode="K"
         id="glyph229"
         d="M 514.1738,729 457.4805,672.3066 385.8262,600.6523 V 573.9277 296.3086 L 407.4805,274.6543 485.8281,196.3066 486.3672,196.8457 486.9063,196.3066 614.1738,323.5762 600.8124,336.9395 529.6972,265.8242 442.5214,353 442.5194,352.998 V 457.3457 L 557.4805,572.3066 614.1738,629 527.5371,715.6367 Z M 470.8436,658.9434 544.1172,585.6699 442.5194,484.0723 V 630.6211 Z" />
      <glyph
         glyph-name=""
         unicode="G"
         id="glyph230"
         d="M 514.17385,729 457.48045,672.3066 385.82615,600.6523 V 573.9277 296.3086 296.3066 L 407.48045,274.6543 485.82615,196.3066 486.36525,196.8457 486.90425,196.3066 614.17385,323.5762 600.81255,336.9395 529.69535,265.8242 442.51955,353 V 457.3457 L 557.48045,572.3066 614.17385,629 527.53715,715.6367 Z M 470.84375,658.9434 544.11715,585.6699 442.51955,484.0723 V 630.6211 Z M 458.25785,188.7226 401.56645,132.0293 462.06645,71.5293 487.53715,97 518.75785,128.2226 549.98045,159.4453 536.61915,172.8086 505.39455,141.5859 Z" />
      <glyph
         glyph-name=""
         unicode="U"
         id="glyph231"
         d="M 514.17285,729 457.47945,672.3066 385.82715,600.6561 399.19045,587.2928 470.84075,658.9453 557.47945,572.3066 V 293.6074 L 529.69625,265.8242 442.52045,353 385.82715,296.3066 485.82715,196.3066 486.36615,196.8457 486.90525,196.3066 562.25285,271.6543 614.17285,323.5742 V 343.7011 629 629.002 L 595.52045,647.6543 H 595.51855 L 527.53415,715.6367 Z" />
      <glyph
         glyph-name=""
         unicode="O"
         id="glyph232"
         d="M 514.17383,729 457.48047,672.30664 385.82617,600.65625 399.18945,587.29297 470.8418,658.94531 557.47852,572.30859 V 488 H 469.21289 L 418.52148,437.30859 V 437.30664 H 557.47852 V 293.60742 L 529.69531,265.82422 442.51953,353 385.82617,296.30664 485.82617,196.30664 486.36523,196.8457 486.9043,196.30664 614.17188,323.57422 V 343.70117 628.99805 L 614.17383,629 614.17188,629.00195 595.51953,647.6543 527.53516,715.63672 Z" />
      <glyph
         glyph-name=""
         unicode="B"
         id="glyph124"
         d="M 404.36174,945 V 685.66992 L 390.99854,672.30664 374.41644,655.72461 317.72314,599.03125 V 253 L 371.07074,199.6543 427.76214,256.3457 511.05514,339.63672 510.99854,339.69336 537.69184,366.38672 V 619 629.11328 639 L 461.05514,715.63672 V 945 Z M 404.36174,658.94336 480.99854,582.30664 V 336.30664 L 414.40084,269.70898 374.41644,309.69336 V 629 Z" />
      <glyph
         glyph-name=""
         unicode="L"
         id="glyph210"
         d="M 511.98535,729 455.29199,672.30664 374.65332,591.66992 388.0166,578.30664 468.65332,658.94531 555.29199,572.30664 473.9834,491 487.34668,477.63672 568.65332,396.33008 V 322.36328 L 512.65332,266.36328 431.34473,347.66992 374.65332,290.97656 455.95996,209.66992 469.32129,196.30664 526.01465,253 568.65332,295.63867 625.34668,352.33008 V 352.33203 453.02344 L 544.04004,534.33008 625.34668,615.63672 611.98535,629 525.34668,715.63672 Z" />
      <glyph
         glyph-name=""
         unicode="M"
         id="glyph357"
         d="M 495.709,945 446.709,896 439.0156,888.3086 390.0156,839.3066 V 493.2754 253 L 443.3633,199.6543 500.0547,256.3457 553.291,309.58008 583.3476,339.63672 609.9844,366.27344 V 619 629 639 L 533.3476,715.6367 519.9844,729 463.291,672.3066 446.709,655.7246 V 869.2754 L 452.3789,874.9453 539.2129,788.1113 595.9043,844.8047 509.0722,931.6367 Z M 476.6543,658.9434 553.291,582.3066 V 336.30664 L 486.6933,269.70898 446.709,309.69336 V 629 Z" />
      <glyph
         glyph-name=""
         unicode="A"
         id="glyph358"
         d="M 409.96986,729 353.2765,672.30664 403.2765,622.30664 V 346.30664 L 353.2765,296.30664 453.2765,196.30664 509.96986,253 459.96986,303 V 437.18945 L 522.07142,499.29102 608.70618,412.65625 V 310.29883 L 524.76868,226.36328 538.13197,213 665.39954,340.26758 V 469.34375 L 665.4015,469.3457 665.39954,469.34766 646.7472,488 578.76282,555.98242 565.4015,569.3457 508.70814,512.6543 459.96986,463.91602 V 579 L 460.35462,579.38477 461.43275,578.30664 542.06947,658.94531 628.70814,572.30664 685.4015,629 598.76282,715.63672 585.4015,729 528.70814,672.30664 497.6847,641.28516 Z" />
      <glyph
         glyph-name=""
         unicode=" "
         id="glyph359" />
      <glyph
         glyph-name=""
         unicode="P"
         id="glyph398"
         d="M 427.53514,729 370.84374,672.3066 299.18944,600.42584 312.55274,587.06254 384.20504,658.9453 470.84174,572.3086 V 293.6055 L 443.05854,265.8242 355.88274,353 299.18944,296.3066 399.18944,196.3066 399.72844,196.8457 400.26754,196.3066 485.55464,281.5937 570.84175,196.3066 571.38085,196.8457 571.91995,196.3066 700.81056,325.19729 687.44925,338.56059 614.71096,265.8242 527.53516,353 V 629 L 557.48045,658.9434 644.11716,572.3066 700.81056,629 614.17385,715.6367 600.81056,729 544.11716,672.3066 514.17385,642.3633 508.88275,647.6543 440.89844,715.6367 427.53704,729 Z" />
      <glyph
         glyph-name=""
         unicode="!"
         id="glyph444"
         d="M 564.98437,829 508.29102,772.30664 558.29102,722.30664 558.28906,84.2793 515.37306,41.36328 428.73633,128 372.04298,71.30664 458.6797,-15.3301 472.04298,-28.6934 528.73634,28 585.01562,84.2793 590.26562,89.5293 614.98243,114.24805 615.37306,114.63672 614.98243,115.02734 V 678.99805 L 664.98437,729 Z M 391.70899,729 335.01562,672.30664 385.01562,622.30664 V 346.30664 L 335.01562,296.30664 435.01562,196.30664 491.70899,253 441.70899,303 V 579 L 491.70899,629 Z" />
      <glyph
         glyph-name=""
         unicode="."
         id="glyph451"
         d="M 499.99995,196.30701 556.69295,252.99996 499.99995,309.69299 443.30705,253.00005 Z" />
      <glyph
         glyph-name=""
         unicode=","
         id="glyph456"
         d="M 500,309.69336 443.30664,253 486.63672,209.66992 443.30664,166.33984 456.66797,152.97656 500,196.30664 556.69335,253 543.33007,266.36328 Z" />
      <glyph
         glyph-name=""
         unicode="-"
         id="glyph458"
         d="M 431.48635,525.34668 380.79495,474.65527 V 474.65332 H 568.51175 L 619.20505,525.34668 Z" />
      <glyph
         glyph-name=""
         unicode="&quot;"
         id="glyph493"
         d="M 450.00001,944.98828 393.3086,888.29688 443.3086,838.29688 V 755.72656 L 393.3086,705.72656 406.67188,692.36328 500.00001,785.69141 V 794.98828 888.29688 894.98828 Z M 500.00001,888.29688 550.00001,838.29688 V 755.72656 L 500.00001,705.72656 513.36329,692.36328 550.00001,729 606.69141,785.69141 V 794.98828 894.98828 L 556.69141,944.98828 Z" />
      <glyph
         glyph-name=""
         unicode="?"
         id="glyph1"
         d="M 505.30371,729 367.97168,591.66992 381.33496,578.30664 461.97364,658.94531 548.61035,572.30859 424.66504,448.36328 367.97168,391.66992 V 314.33008 278.2832 L 449.94825,196.30664 506.64161,253 632.02832,378.38477 618.69434,391.7207 558.69434,451.7207 502.00098,395.02734 561.97364,335.05469 493.28028,266.36133 424.66504,334.97656 V 421.63672 L 618.66504,615.63672 605.30371,629 518.66504,715.63672 Z" />
    </font>
</defs>
</svg>
